<svg id="Layer_1" enable-background="new 0 0 256 256" height="512" viewBox="0 0 256 256" width="512" xmlns="http://www.w3.org/2000/svg"><g><g><g><circle cx="128" cy="128" fill="#382b73" r="119.4"/></g></g><g><g><path d="m50.011 209.78c.683.683 1.697.913 2.608.587l31.269-11.156c13.116 8.627 28.338 13.18 44.112 13.18 44.328 0 80.391-36.063 80.391-80.391s-36.063-80.391-80.391-80.391-80.391 36.063-80.391 80.391c0 15.66 4.49 30.789 12.995 43.837l-11.18 31.335c-.324.91-.096 1.926.587 2.608zm15.723-33.441c.267-.749.163-1.58-.282-2.238-8.402-12.457-12.843-27.015-12.843-42.101 0-41.57 33.82-75.391 75.391-75.391s75.391 33.821 75.391 75.391-33.821 75.391-75.391 75.391c-15.193 0-29.841-4.503-42.36-13.024-.42-.286-.912-.433-1.407-.433-.283 0-.567.048-.84.146l-27.488 9.807z" fill="#291b4a"/></g><g><path d="m61.745 132c0 1.381 1.119 2.5 2.5 2.5s2.5-1.119 2.5-2.5c0-33.776 27.479-61.255 61.255-61.255 1.381 0 2.5-1.119 2.5-2.5s-1.119-2.5-2.5-2.5c-36.533 0-66.255 29.722-66.255 66.255z" fill="#291b4a"/></g><g><path d="m121.846 108.379c-1.381 0-2.5 1.119-2.5 2.5v31.323c0 1.381 1.119 2.5 2.5 2.5h12.309c1.381 0 2.5-1.119 2.5-2.5v-31.323c0-1.381-1.119-2.5-2.5-2.5zm9.808 31.323h-7.309v-26.323h7.309z" fill="#291b4a"/></g><g><path d="m119.346 158.159c0 4.772 3.882 8.654 8.654 8.654s8.654-3.882 8.654-8.654-3.882-8.654-8.654-8.654-8.654 3.882-8.654 8.654zm12.308 0c0 2.015-1.639 3.654-3.654 3.654s-3.654-1.639-3.654-3.654 1.639-3.654 3.654-3.654 3.654 1.64 3.654 3.654z" fill="#291b4a"/></g><g><path d="m128 78.662c-.898 0-1.727.481-2.172 1.262l-53.18 93.28c-.441.774-.437 1.724.01 2.494s1.271 1.244 2.162 1.244h106.36c.891 0 1.714-.474 2.162-1.244s.451-1.72.01-2.494l-53.18-93.28c-.445-.781-1.274-1.262-2.172-1.262zm-48.876 93.28 48.876-85.733 48.876 85.732h-97.752z" fill="#291b4a"/></g></g><g><g><path d="m50.011 205.78c.683.683 1.697.913 2.608.587l31.269-11.156c13.116 8.627 28.338 13.18 44.112 13.18 44.328 0 80.391-36.063 80.391-80.391s-36.063-80.391-80.391-80.391-80.391 36.063-80.391 80.391c0 15.66 4.49 30.789 12.995 43.837l-11.18 31.335c-.324.91-.096 1.926.587 2.608zm15.723-33.441c.267-.749.163-1.58-.282-2.238-8.402-12.457-12.843-27.015-12.843-42.101 0-41.57 33.82-75.391 75.391-75.391s75.391 33.821 75.391 75.391-33.821 75.391-75.391 75.391c-15.193 0-29.841-4.503-42.36-13.024-.42-.286-.912-.433-1.407-.433-.283 0-.567.048-.84.146l-27.488 9.807z" fill="#f9b087"/></g><g><g fill="#ff8639"><path d="m50.011 205.78c.477.477 1.116.733 1.768.733.281 0 .566-.048.84-.146l31.269-11.156c13.116 8.627 28.338 13.18 44.112 13.18 44.328 0 80.391-36.063 80.391-80.391s-36.063-80.391-80.391-80.391-80.391 36.063-80.391 80.391c0 15.66 4.49 30.789 12.995 43.837l-11.18 31.335c-.324.91-.096 1.926.587 2.608zm.826-2.103 11.18-31.335c.157-.441.1-.931-.156-1.323-8.342-12.799-12.752-27.674-12.752-43.019 0-43.5 35.39-78.891 78.891-78.891s78.891 35.391 78.891 78.891-35.391 78.891-78.891 78.891c-15.456 0-30.424-4.472-43.287-12.933-.248-.163-.535-.247-.824-.247-.17 0-.34.029-.504.087l-31.27 11.157c-.108.039-.221.058-.335.058-.267 0-.518-.104-.708-.294-.272-.271-.364-.68-.235-1.042z"/><path d="m55.906 201.386c.169 0 .339-.029.504-.087l27.489-9.808c.107-.038.22-.058.335-.058.201 0 .396.06.563.173 12.769 8.69 27.708 13.284 43.204 13.284 42.398 0 76.891-34.493 76.891-76.891s-34.494-76.89-76.892-76.89-76.891 34.493-76.891 76.891c0 15.386 4.53 30.234 13.099 42.939.177.262.219.597.112.895l-9.829 27.547c-.195.546-.058 1.155.352 1.565.288.287.671.44 1.063.44zm9.828-29.047c.267-.749.163-1.58-.282-2.238-8.402-12.457-12.843-27.015-12.843-42.101 0-41.57 33.82-75.391 75.391-75.391s75.391 33.821 75.391 75.391-33.821 75.391-75.391 75.391c-15.193 0-29.841-4.503-42.36-13.024-.42-.286-.912-.433-1.407-.433-.283 0-.567.048-.84.146l-27.488 9.807z"/></g></g><g><path d="m61.745 128c0 1.381 1.119 2.5 2.5 2.5s2.5-1.119 2.5-2.5c0-33.776 27.479-61.255 61.255-61.255 1.381 0 2.5-1.119 2.5-2.5s-1.119-2.5-2.5-2.5c-36.533 0-66.255 29.722-66.255 66.255z" fill="#d3d3d3"/></g><g><g><path d="m61.745 128c0 1.381 1.119 2.5 2.5 2.5s2.5-1.119 2.5-2.5c0-33.776 27.479-61.255 61.255-61.255 1.381 0 2.5-1.119 2.5-2.5s-1.119-2.5-2.5-2.5c-36.533 0-66.255 29.722-66.255 66.255zm67.255-63.755c0 .552-.449 1-1 1-34.603 0-62.755 28.152-62.755 62.755 0 .552-.449 1-1 1s-1-.448-1-1c0-35.706 29.049-64.755 64.755-64.755.551 0 1 .448 1 1z" fill="#ebe7f2"/></g></g><g><path d="m121.846 104.379c-1.381 0-2.5 1.119-2.5 2.5v31.323c0 1.381 1.119 2.5 2.5 2.5h12.309c1.381 0 2.5-1.119 2.5-2.5v-31.323c0-1.381-1.119-2.5-2.5-2.5zm9.808 31.323h-7.309v-26.323h7.309z" fill="#ed9abc"/></g><g><path d="m119.346 154.159c0 4.772 3.882 8.654 8.654 8.654s8.654-3.882 8.654-8.654-3.882-8.654-8.654-8.654-8.654 3.882-8.654 8.654zm12.308 0c0 2.015-1.639 3.654-3.654 3.654s-3.654-1.639-3.654-3.654 1.639-3.654 3.654-3.654 3.654 1.64 3.654 3.654z" fill="#ed9abc"/></g><g><path d="m128 74.662c-.898 0-1.727.481-2.172 1.262l-53.18 93.28c-.441.774-.437 1.724.01 2.494s1.271 1.244 2.162 1.244h106.36c.891 0 1.714-.474 2.162-1.244s.451-1.72.01-2.494l-53.18-93.28c-.445-.781-1.274-1.262-2.172-1.262zm-48.876 93.28 48.876-85.733 48.876 85.732h-97.752z" fill="#ed9abc"/></g><g><g fill="#e54890"><path d="m131.654 107.879h-7.309c-.828 0-1.5.672-1.5 1.5v26.323c0 .828.672 1.5 1.5 1.5h7.309c.828 0 1.5-.672 1.5-1.5v-26.323c0-.828-.671-1.5-1.5-1.5zm0 27.823h-7.309v-26.323h7.309z"/><path d="m121.846 104.379c-1.381 0-2.5 1.119-2.5 2.5v31.323c0 1.381 1.119 2.5 2.5 2.5h12.309c1.381 0 2.5-1.119 2.5-2.5v-31.323c0-1.381-1.119-2.5-2.5-2.5zm13.308 2.5v31.323c0 .552-.449 1-1 1h-12.309c-.551 0-1-.448-1-1v-31.323c0-.552.449-1 1-1h12.309c.552 0 1 .448 1 1z"/></g></g><g><g fill="#e54890"><path d="m119.346 154.159c0 4.772 3.882 8.654 8.654 8.654s8.654-3.882 8.654-8.654-3.882-8.654-8.654-8.654-8.654 3.882-8.654 8.654zm15.808 0c0 3.945-3.209 7.154-7.154 7.154s-7.154-3.209-7.154-7.154 3.209-7.154 7.154-7.154 7.154 3.21 7.154 7.154z"/><path d="m122.846 154.159c0 2.842 2.312 5.154 5.154 5.154s5.154-2.312 5.154-5.154-2.312-5.154-5.154-5.154-5.154 2.312-5.154 5.154zm8.808 0c0 2.015-1.639 3.654-3.654 3.654s-3.654-1.639-3.654-3.654 1.639-3.654 3.654-3.654 3.654 1.64 3.654 3.654z"/></g></g><g><g fill="#e54890"><path d="m128 74.662c-.898 0-1.727.481-2.172 1.262l-53.18 93.28c-.441.774-.437 1.724.01 2.494s1.271 1.244 2.162 1.244h106.36c.891 0 1.714-.474 2.162-1.244s.451-1.72.01-2.494l-53.18-93.28c-.445-.781-1.274-1.262-2.172-1.262zm54.044 96.282c-.178.307-.51.498-.865.498h-106.359c-.355 0-.686-.191-.865-.498-.178-.307-.18-.689-.004-.998l53.18-93.28c.177-.311.51-.505.869-.505s.691.193.869.505l53.179 93.28c.176.309.175.691-.004.998z"/><path d="m126.697 81.467-48.877 85.732c-.265.464-.262 1.034.006 1.497.268.462.763.746 1.297.746h97.753c.534 0 1.029-.284 1.297-.746s.271-1.032.006-1.497l-48.876-85.732c-.267-.468-.764-.757-1.303-.757s-1.036.289-1.303.757zm50.179 86.475h-97.752l48.876-85.733z"/></g></g></g></g></svg>