<?xml version="1.0"?>
<svg xmlns="http://www.w3.org/2000/svg" xmlns:xlink="http://www.w3.org/1999/xlink" xmlns:svgjs="http://svgjs.com/svgjs" version="1.1" width="512" height="512" x="0" y="0" viewBox="0 0 512 512" style="enable-background:new 0 0 512 512" xml:space="preserve" class=""><g><path xmlns="http://www.w3.org/2000/svg" d="m512 256c0 141.386719-114.613281 256-256 256s-256-114.613281-256-256 114.613281-256 256-256 256 114.613281 256 256zm0 0" fill="#6259a6" data-original="#ff5856" style="" class=""/><path xmlns="http://www.w3.org/2000/svg" d="m363.757812 0h-215.542968c-26.148438 0-47.421875 21.273438-47.421875 47.421875v412.15625c43.058593 32.878906 96.847656 52.421875 155.207031 52.421875 58.347656 0 112.125-19.535156 155.179688-52.402344v-412.175781c0-26.148437-21.273438-47.421875-47.421876-47.421875zm0 0" fill="#ffb52d" data-original="#58596c" style="" class=""/><path xmlns="http://www.w3.org/2000/svg" d="m153.898438 47.421875c0-26.148437 21.273437-47.421875 47.417968-47.421875h-53.101562c-26.148438 0-47.421875 21.273438-47.421875 47.421875v412.15625c16.277343 12.429687 34.09375 22.949219 53.105469 31.234375zm0 0" fill="#f1a52e" data-original="#484a5e" style="" class=""/><path xmlns="http://www.w3.org/2000/svg" d="m256 512c46.863281 0 90.773438-12.609375 128.554688-34.601562v-429.976563c0-11.484375-9.3125-20.792969-20.796876-20.792969h-43.632812c-4.480469 0-8.421875 2.96875-9.660156 7.273438l-4.179688 14.546875c-1.097656 3.835937-4.605468 6.476562-8.59375 6.476562h-83.40625c-3.988281 0-7.496094-2.640625-8.597656-6.476562l-4.125-14.363281c-1.269531-4.417969-5.308594-7.457032-9.902344-7.457032h-43.445312c-11.484375 0-20.792969 9.308594-20.792969 20.792969v429.964844c37.785156 21.996093 81.703125 34.613281 128.578125 34.613281zm0 0" fill="#e3dfff" data-original="#7da8ff" style="" class=""/><path xmlns="http://www.w3.org/2000/svg" d="m153.898438 47.421875c0-7.453125 1.734374-14.511719 4.8125-20.792969h-10.496094c-11.484375 0-20.792969 9.308594-20.792969 20.792969v429.953125c8.542969 4.972656 17.183594 9.363281 26.476563 13.425781zm0 0" fill="#cdc8eb" data-original="#5085fe" style="" class=""/><path xmlns="http://www.w3.org/2000/svg" d="m167.464844 165.328125c-44.175782 46.765625-43.582032 120.722656 1.304687 166.808594 37.425781 38.417969 94.226563 46.417969 139.722657 24.003906 15.621093-7.695313 34.335937-4.761719 46.96875 7.09375.304687-3.707031 1.867187-7.324219 4.699218-10.160156 2.886719-2.882813 6.582032-4.445313 10.355469-4.710938-11.378906-13.492187-14.109375-32.515625-6.464844-48.667969 21.167969-44.742187 13.277344-99.921874-23.679687-136.878906-47.820313-47.820312-126.152344-46.984375-172.90625 2.511719zm0 0" fill="#ffb52d" data-original="#ecebed" style="" class=""/><path xmlns="http://www.w3.org/2000/svg" d="m286.703125 338.980469c-61.917969-17.464844-99.410156-81.214844-84.535156-143.804688 6.609375-27.816406 22.335937-50.984375 43.191406-67.207031-28.609375 2.308594-56.542969 14.757812-77.894531 37.355469-44.175782 46.769531-43.582032 120.726562 1.304687 166.8125 37.425781 38.417969 94.226563 46.414062 139.722657 24 15.621093-7.695313 34.335937-4.761719 46.96875 7.09375.304687-3.703125 1.867187-7.324219 4.699218-10.160157 2.886719-2.882812 6.582032-4.441406 10.355469-4.710937-3.3125-3.925781-5.886719-8.324219-7.691406-12.980469-23.480469 9.097656-50 10.972656-76.121094 3.601563zm0 0" fill="#f1a52e" data-original="#d4d1da" style="" class=""/><path xmlns="http://www.w3.org/2000/svg" d="m340.480469 248.046875c0 47.121094-38.199219 85.316406-85.316407 85.316406-47.117187 0-85.316406-38.195312-85.316406-85.316406 0-47.117187 38.199219-85.3125 85.316406-85.3125 47.117188 0 85.316407 38.195313 85.316407 85.3125zm0 0" fill="#6259a6" data-original="#ff5856" style="" class=""/><path xmlns="http://www.w3.org/2000/svg" d="m268.667969 332.289062c-50.9375-23.6875-79.867188-80.867187-66.5-137.113281 1.507812-6.347656 3.511719-12.4375 5.921875-18.273437-23.039063 15.273437-38.242188 41.429687-38.242188 71.144531 0 47.117187 38.199219 85.316406 85.316406 85.316406 4.597657 0 9.105469-.375 13.503907-1.074219zm0 0" fill="#483f88" data-original="#db4040" style="" class=""/><path xmlns="http://www.w3.org/2000/svg" d="m255.941406 258.890625c-7.351562 0-13.3125-5.960937-13.3125-13.3125v-37.183594c0-7.351562 5.957032-13.3125 13.3125-13.3125 7.351563 0 13.3125 5.960938 13.3125 13.3125v37.183594c0 7.351563-5.960937 13.3125-13.3125 13.3125zm0 0" fill="#483f88" data-original="#db4040" style="" class=""/><path xmlns="http://www.w3.org/2000/svg" d="m255.941406 229.925781c-7.351562 0-13.3125-5.960937-13.3125-13.3125v28.964844c0 7.351563 5.960938 13.3125 13.3125 13.3125 7.351563 0 13.3125-5.960937 13.3125-13.3125v-28.964844c0 7.351563-5.960937 13.3125-13.3125 13.3125zm0 0" fill="#ffb52d" data-original="#cc3636" style="" class=""/><path xmlns="http://www.w3.org/2000/svg" d="m255.953125 296.832031c-7.351563 0-13.320313-5.960937-13.320313-13.3125 0-7.351562 5.957032-13.316406 13.308594-13.316406h.011719c7.355469 0 13.316406 5.964844 13.316406 13.316406-.003906 7.351563-5.960937 13.3125-13.316406 13.3125zm0 0" fill="#ffb52d" data-original="#cc3636" style="" class=""/><path xmlns="http://www.w3.org/2000/svg" d="m385.019531 351.222656 62.738281 62.738282c7.375 7.375 7.375 19.332031 0 26.710937-7.375 7.375-19.335937 7.375-26.710937 0l-62.738281-62.738281c-7.375-7.375-7.375-19.335938 0-26.710938s19.335937-7.375 26.710937 0zm0 0" fill="#fc974d" data-original="#fc974d" style="" class=""/><path xmlns="http://www.w3.org/2000/svg" d="m434.570312 428.34375-62.734374-62.738281c-5.246094-5.246094-6.742188-12.800781-4.527344-19.386719-3.296875.777344-6.429688 2.429688-9 5.003906-7.375 7.375-7.375 19.335938 0 26.710938l62.738281 62.738281c7.375 7.375 19.332031 7.375 26.710937 0 2.128907-2.132813 3.625-4.648437 4.523438-7.324219-6.160156 1.453125-12.90625-.199218-17.710938-5.003906zm0 0" fill="#f47f31" data-original="#f47f31" style="" class=""/><path xmlns="http://www.w3.org/2000/svg" d="m397.734375 363.933594-12.714844-12.710938c-7.375-7.378906-19.335937-7.378906-26.710937 0-7.375 7.375-7.375 19.332032 0 26.710938l12.710937 12.710937zm0 0" fill="#f47f31" data-original="#f47f31" style="" class=""/><path xmlns="http://www.w3.org/2000/svg" d="m371.835938 365.605469c-5.246094-5.246094-6.742188-12.800781-4.527344-19.386719-3.453125.8125-6.613282 2.621094-8.992188 4.996094-.003906.003906-.003906.003906-.007812.007812-6.152344 6.152344-7.152344 15.484375-3.042969 22.695313.820313 1.433593 1.820313 2.792969 3.042969 4.015625l12.714844 12.714844 12.925781-12.925782zm0 0" fill="#e86d1a" data-original="#e86d1a" style="" class=""/><path xmlns="http://www.w3.org/2000/svg" d="m267.09375 35.855469h-18.90625c-5.125 0-9.285156-4.15625-9.285156-9.285157 0-5.128906 4.160156-9.285156 9.285156-9.285156h18.90625c5.128906 0 9.285156 4.15625 9.285156 9.285156 0 5.128907-4.15625 9.285157-9.285156 9.285157zm0 0" fill="#483f88" data-original="#6d6d7c" style="" class=""/><path xmlns="http://www.w3.org/2000/svg" d="m306.652344 451.253906c0-9.90625-8.027344-17.9375-17.933594-17.9375h-67.441406c-9.90625 0-17.9375 8.03125-17.9375 17.9375 0 9.902344 8.03125 17.933594 17.9375 17.933594h67.441406c9.90625 0 17.933594-8.03125 17.933594-17.933594zm0 0" fill="#665ac1" data-original="#a4c7ff" style="" class=""/><path xmlns="http://www.w3.org/2000/svg" d="m254.996094 451.253906c0-9.90625 8.03125-17.9375 17.9375-17.9375h-51.65625c-9.90625 0-17.933594 8.03125-17.933594 17.9375 0 9.902344 8.027344 17.933594 17.933594 17.933594h51.65625c-9.90625 0-17.9375-8.03125-17.9375-17.933594zm0 0" fill="#483f88" data-original="#91b8ff" style="" class=""/></g></svg>
